<svg width="174" height="105" viewBox="0 0 174 105" fill="none" xmlns="http://www.w3.org/2000/svg">
<path d="M13.0234 88.3359C12.8047 88.6484 12.5234 89.0391 12.1797 89.5078C11.8359 89.9609 11.4766 90.4219 11.1016 90.8906C10.7422 91.3438 10.3828 91.7656 10.0234 92.1562C9.67969 92.5312 9.39062 92.7969 9.15625 92.9531C9 93.0469 8.82031 93.125 8.61719 93.1875C8.41406 93.25 8.20312 93.2891 7.98438 93.3047C7.78125 93.3203 7.58594 93.3047 7.39844 93.2578C7.21094 93.2266 7.04688 93.1641 6.90625 93.0703C6.76562 92.9609 6.64844 92.8047 6.55469 92.6016C6.47656 92.4297 6.39844 92.2031 6.32031 91.9219C6.25781 91.6406 6.23438 91.2891 6.25 90.8672C5.875 91.4922 5.46094 91.9766 5.00781 92.3203C4.55469 92.6484 4.125 92.8906 3.71875 93.0469C3.25 93.2188 2.78125 93.3203 2.3125 93.3516C2.09375 93.3516 1.85938 93.2734 1.60938 93.1172C1.35938 92.9766 1.14844 92.75 0.976562 92.4375C0.804688 92.1094 0.695312 91.6953 0.648438 91.1953C0.601562 90.6797 0.664062 90.0703 0.835938 89.3672C1.05469 88.4141 1.39844 87.5469 1.86719 86.7656C2.35156 85.9844 2.875 85.3203 3.4375 84.7734C4 84.2109 4.55469 83.7891 5.10156 83.5078C5.64844 83.2266 6.10156 83.1016 6.46094 83.1328C6.88281 83.2109 7.22656 83.3359 7.49219 83.5078C7.71094 83.6641 7.85156 83.8984 7.91406 84.2109C7.99219 84.5078 7.86719 84.9062 7.53906 85.4062C7.75781 85.3594 7.9375 85.3281 8.07812 85.3125C8.23438 85.2969 8.35156 85.2891 8.42969 85.2891C8.52344 85.2891 8.58594 85.2969 8.61719 85.3125C8.63281 85.3438 8.64062 85.4141 8.64062 85.5234C8.64062 85.6172 8.61719 85.7969 8.57031 86.0625C8.52344 86.3281 8.45312 86.6875 8.35938 87.1406C8.26562 87.5938 8.14062 88.1797 7.98438 88.8984C7.95312 89.0391 7.92188 89.1719 7.89062 89.2969C7.875 89.4062 7.85156 89.5234 7.82031 89.6484C7.80469 89.7578 7.78125 89.8906 7.75 90.0469C7.71875 90.2031 7.67969 90.3984 7.63281 90.6328C7.61719 90.7734 7.60938 90.9297 7.60938 91.1016C7.625 91.2578 7.65625 91.4062 7.70312 91.5469C7.75 91.6875 7.82031 91.8047 7.91406 91.8984C8.02344 91.9766 8.17188 92.0156 8.35938 92.0156C8.51562 92.0156 8.71875 91.9219 8.96875 91.7344C9.21875 91.5312 9.48438 91.2812 9.76562 90.9844C10.0469 90.6719 10.3359 90.3359 10.6328 89.9766C10.9453 89.6016 11.2344 89.2422 11.5 88.8984C11.7656 88.5547 12 88.25 12.2031 87.9844C12.4219 87.7188 12.5781 87.5234 12.6719 87.3984C12.7969 87.2578 12.9219 87.1797 13.0469 87.1641C13.1719 87.1328 13.2656 87.1641 13.3281 87.2578C13.3906 87.3516 13.3984 87.4922 13.3516 87.6797C13.3203 87.8672 13.2109 88.0859 13.0234 88.3359ZM6.15625 89.3672C6.23438 89.0547 6.32812 88.6875 6.4375 88.2656C6.54688 87.8438 6.64062 87.4375 6.71875 87.0469C6.79688 86.6562 6.85156 86.3359 6.88281 86.0859C6.92969 85.8203 6.92188 85.6953 6.85938 85.7109C6.78125 85.7266 6.69531 85.75 6.60156 85.7812C6.52344 85.8125 6.42188 85.8359 6.29688 85.8516C6.17188 85.8672 6.04688 85.8906 5.92188 85.9219C6.04688 85.6719 6.11719 85.4688 6.13281 85.3125C6.16406 85.1406 6.17188 85.0078 6.15625 84.9141C6.14062 84.8047 6.10938 84.7188 6.0625 84.6562C5.89062 84.5156 5.58594 84.6328 5.14844 85.0078C4.72656 85.3672 4.23438 86.0391 3.67188 87.0234C3.4375 87.4297 3.25 87.8672 3.10938 88.3359C2.96875 88.7891 2.86719 89.2188 2.80469 89.625C2.75781 90.0312 2.75 90.3906 2.78125 90.7031C2.8125 91 2.875 91.1953 2.96875 91.2891C3.14062 91.4609 3.33594 91.5469 3.55469 91.5469C3.77344 91.5312 3.99219 91.4688 4.21094 91.3594C4.44531 91.2344 4.67188 91.0781 4.89062 90.8906C5.125 90.7031 5.32812 90.5078 5.5 90.3047C5.6875 90.1016 5.83594 89.9141 5.94531 89.7422C6.07031 89.5703 6.14062 89.4453 6.15625 89.3672ZM15.4375 92.2031C15.9219 92.2031 16.4531 92.0156 17.0312 91.6406C17.625 91.25 18.1953 90.7969 18.7422 90.2812C19.3047 89.7656 19.8125 89.2422 20.2656 88.7109C20.7344 88.1641 21.0859 87.7266 21.3203 87.3984C21.4609 87.1953 21.5938 87.0781 21.7188 87.0469C21.8438 87 21.9375 87.0156 22 87.0938C22.0625 87.1719 22.0859 87.2969 22.0703 87.4688C22.0547 87.625 21.9844 87.8047 21.8594 88.0078C21.75 88.1953 21.5625 88.4688 21.2969 88.8281C21.0469 89.1719 20.7422 89.5547 20.3828 89.9766C20.0391 90.3828 19.6406 90.8047 19.1875 91.2422C18.75 91.6641 18.2891 92.0547 17.8047 92.4141C17.3203 92.7578 16.8203 93.0391 16.3047 93.2578C15.7891 93.4922 15.2812 93.6094 14.7812 93.6094C14.0938 93.6094 13.5156 93.4766 13.0469 93.2109C12.5938 92.9609 12.2266 92.6328 11.9453 92.2266C11.6797 91.8203 11.4922 91.375 11.3828 90.8906C11.2734 90.3906 11.2188 89.8984 11.2188 89.4141C11.2188 88.9297 11.3281 88.3281 11.5469 87.6094C11.7656 86.8906 12.0859 86.2031 12.5078 85.5469C12.9453 84.875 13.4922 84.3047 14.1484 83.8359C14.8047 83.3516 15.5781 83.1094 16.4688 83.1094C16.9688 83.1094 17.3906 83.2812 17.7344 83.625C18.0938 83.9688 18.2656 84.4375 18.25 85.0312C18.25 85.3125 18.2031 85.5938 18.1094 85.875C18.0156 86.1406 17.8906 86.3828 17.7344 86.6016C17.5781 86.8047 17.3906 86.9688 17.1719 87.0938C16.9688 87.2188 16.7422 87.2812 16.4922 87.2812C16.2891 87.2812 16.1328 87.2109 16.0234 87.0703C15.9297 86.9141 15.8672 86.7422 15.8359 86.5547C15.8203 86.3516 15.8203 86.1562 15.8359 85.9688C15.8672 85.7812 15.8984 85.6562 15.9297 85.5938C16.0078 85.4844 16.0938 85.4062 16.1875 85.3594C16.2812 85.3125 16.3906 85.2578 16.5156 85.1953C16.6094 85.1484 16.6797 85.0781 16.7266 84.9844C16.7891 84.8906 16.8203 84.7891 16.8203 84.6797C16.8203 84.5703 16.7891 84.4766 16.7266 84.3984C16.6641 84.3203 16.5625 84.2812 16.4219 84.2812C16.2812 84.2812 16.0234 84.3984 15.6484 84.6328C15.2891 84.8516 14.9141 85.1875 14.5234 85.6406C14.1484 86.0781 13.8125 86.6328 13.5156 87.3047C13.2188 87.9766 13.0625 88.7578 13.0469 89.6484C13.0312 90.1641 13.1016 90.5859 13.2578 90.9141C13.4141 91.2422 13.6094 91.5 13.8438 91.6875C14.0781 91.875 14.3359 92.0078 14.6172 92.0859C14.8984 92.1641 15.1719 92.2031 15.4375 92.2031ZM32.1953 88.3359C31.9766 88.6484 31.6953 89.0391 31.3516 89.5078C31.0078 89.9609 30.6484 90.4219 30.2734 90.8906C29.9141 91.3438 29.5547 91.7656 29.1953 92.1562C28.8516 92.5312 28.5625 92.7969 28.3281 92.9531C28.1719 93.0469 27.9922 93.125 27.7891 93.1875C27.5859 93.25 27.375 93.2891 27.1562 93.3047C26.9531 93.3203 26.7578 93.3047 26.5703 93.2578C26.3828 93.2266 26.2188 93.1641 26.0781 93.0703C25.9375 92.9609 25.8203 92.8047 25.7266 92.6016C25.6484 92.4297 25.5703 92.2031 25.4922 91.9219C25.4297 91.6406 25.4062 91.2891 25.4219 90.8672C25.0469 91.4922 24.6328 91.9766 24.1797 92.3203C23.7266 92.6484 23.2969 92.8906 22.8906 93.0469C22.4219 93.2188 21.9531 93.3203 21.4844 93.3516C21.2656 93.3516 21.0312 93.2734 20.7812 93.1172C20.5312 92.9766 20.3203 92.75 20.1484 92.4375C19.9766 92.1094 19.8672 91.6953 19.8203 91.1953C19.7734 90.6797 19.8359 90.0703 20.0078 89.3672C20.2266 88.4141 20.5703 87.5469 21.0391 86.7656C21.5234 85.9844 22.0469 85.3203 22.6094 84.7734C23.1719 84.2109 23.7266 83.7891 24.2734 83.5078C24.8203 83.2266 25.2734 83.1016 25.6328 83.1328C26.0547 83.2109 26.3984 83.3359 26.6641 83.5078C26.8828 83.6641 27.0234 83.8984 27.0859 84.2109C27.1641 84.5078 27.0391 84.9062 26.7109 85.4062C26.9297 85.3594 27.1094 85.3281 27.25 85.3125C27.4062 85.2969 27.5234 85.2891 27.6016 85.2891C27.6953 85.2891 27.7578 85.2969 27.7891 85.3125C27.8047 85.3438 27.8125 85.4141 27.8125 85.5234C27.8125 85.6172 27.7891 85.7969 27.7422 86.0625C27.6953 86.3281 27.625 86.6875 27.5312 87.1406C27.4375 87.5938 27.3125 88.1797 27.1562 88.8984C27.125 89.0391 27.0938 89.1719 27.0625 89.2969C27.0469 89.4062 27.0234 89.5234 26.9922 89.6484C26.9766 89.7578 26.9531 89.8906 26.9219 90.0469C26.8906 90.2031 26.8516 90.3984 26.8047 90.6328C26.7891 90.7734 26.7812 90.9297 26.7812 91.1016C26.7969 91.2578 26.8281 91.4062 26.875 91.5469C26.9219 91.6875 26.9922 91.8047 27.0859 91.8984C27.1953 91.9766 27.3438 92.0156 27.5312 92.0156C27.6875 92.0156 27.8906 91.9219 28.1406 91.7344C28.3906 91.5312 28.6562 91.2812 28.9375 90.9844C29.2188 90.6719 29.5078 90.3359 29.8047 89.9766C30.1172 89.6016 30.4062 89.2422 30.6719 88.8984C30.9375 88.5547 31.1719 88.25 31.375 87.9844C31.5938 87.7188 31.75 87.5234 31.8438 87.3984C31.9688 87.2578 32.0938 87.1797 32.2188 87.1641C32.3438 87.1328 32.4375 87.1641 32.5 87.2578C32.5625 87.3516 32.5703 87.4922 32.5234 87.6797C32.4922 87.8672 32.3828 88.0859 32.1953 88.3359ZM25.3281 89.3672C25.4062 89.0547 25.5 88.6875 25.6094 88.2656C25.7188 87.8438 25.8125 87.4375 25.8906 87.0469C25.9688 86.6562 26.0234 86.3359 26.0547 86.0859C26.1016 85.8203 26.0938 85.6953 26.0312 85.7109C25.9531 85.7266 25.8672 85.75 25.7734 85.7812C25.6953 85.8125 25.5938 85.8359 25.4688 85.8516C25.3438 85.8672 25.2188 85.8906 25.0938 85.9219C25.2188 85.6719 25.2891 85.4688 25.3047 85.3125C25.3359 85.1406 25.3438 85.0078 25.3281 84.9141C25.3125 84.8047 25.2812 84.7188 25.2344 84.6562C25.0625 84.5156 24.7578 84.6328 24.3203 85.0078C23.8984 85.3672 23.4062 86.0391 22.8438 87.0234C22.6094 87.4297 22.4219 87.8672 22.2812 88.3359C22.1406 88.7891 22.0391 89.2188 21.9766 89.625C21.9297 90.0312 21.9219 90.3906 21.9531 90.7031C21.9844 91 22.0469 91.1953 22.1406 91.2891C22.3125 91.4609 22.5078 91.5469 22.7266 91.5469C22.9453 91.5312 23.1641 91.4688 23.3828 91.3594C23.6172 91.2344 23.8438 91.0781 24.0625 90.8906C24.2969 90.7031 24.5 90.5078 24.6719 90.3047C24.8594 90.1016 25.0078 89.9141 25.1172 89.7422C25.2422 89.5703 25.3125 89.4453 25.3281 89.3672ZM38.0781 88.5234C38 89.0078 37.9219 89.4688 37.8438 89.9062C37.7812 90.3438 37.7422 90.6953 37.7266 90.9609C37.7109 91.3516 37.7812 91.6328 37.9375 91.8047C38.0938 91.9766 38.2656 92.0625 38.4531 92.0625C38.6719 92.0625 38.9375 91.9531 39.25 91.7344C39.5781 91.5156 39.9219 91.2422 40.2812 90.9141C40.6406 90.5859 41 90.2266 41.3594 89.8359C41.7188 89.4453 42.0469 89.0781 42.3438 88.7344C42.6562 88.375 42.9141 88.0625 43.1172 87.7969C43.3359 87.5312 43.4844 87.3594 43.5625 87.2812C43.6562 87.1875 43.75 87.1328 43.8438 87.1172C43.9531 87.1016 44.0391 87.1172 44.1016 87.1641C44.1641 87.2109 44.1953 87.2969 44.1953 87.4219C44.1953 87.5469 44.1328 87.7031 44.0078 87.8906C43.8203 88.1875 43.5781 88.5391 43.2812 88.9453C42.9844 89.3359 42.6562 89.7422 42.2969 90.1641C41.9375 90.5859 41.5547 91 41.1484 91.4062C40.7578 91.8125 40.3594 92.1719 39.9531 92.4844C39.5625 92.7969 39.1797 93.0469 38.8047 93.2344C38.4453 93.4375 38.1172 93.5391 37.8203 93.5391C37.6016 93.5391 37.3906 93.4766 37.1875 93.3516C37 93.2266 36.8281 93.0625 36.6719 92.8594C36.5156 92.6562 36.3906 92.4297 36.2969 92.1797C36.2188 91.9297 36.1875 91.6797 36.2031 91.4297C36.2188 91.3203 36.2422 91.1328 36.2734 90.8672C35.6172 91.6016 34.9531 92.1875 34.2812 92.625C33.625 93.0469 32.9922 93.2578 32.3828 93.2578C32.1641 93.2578 31.9297 93.2031 31.6797 93.0938C31.4297 92.9844 31.2031 92.8047 31 92.5547C30.8125 92.3047 30.6562 91.9766 30.5312 91.5703C30.4062 91.1641 30.3594 90.6719 30.3906 90.0938C30.4375 89.1875 30.6172 88.3281 30.9297 87.5156C31.2422 86.7031 31.6328 86 32.1016 85.4062C32.5859 84.7969 33.125 84.3203 33.7188 83.9766C34.3281 83.6172 34.9375 83.4375 35.5469 83.4375C35.8125 83.4375 36.0547 83.5078 36.2734 83.6484C36.4922 83.7734 36.6797 83.9453 36.8359 84.1641C36.9922 84.3672 37.1172 84.5938 37.2109 84.8438C37.3203 85.0938 37.3984 85.3281 37.4453 85.5469C37.5547 85.0938 37.6562 84.6484 37.75 84.2109C37.8438 83.7734 37.9375 83.3594 38.0312 82.9688C38.1875 82.3906 38.3516 81.7656 38.5234 81.0938C38.6797 80.5156 38.8594 79.8516 39.0625 79.1016C39.2656 78.3516 39.4922 77.5625 39.7422 76.7344C39.8984 76.6094 40.0469 76.5156 40.1875 76.4531C40.3281 76.3906 40.4609 76.3438 40.5859 76.3125C40.7266 76.2656 40.8594 76.2422 40.9844 76.2422C41.1406 76.2422 41.2812 76.2656 41.4062 76.3125C41.5312 76.3438 41.6328 76.4453 41.7109 76.6172C41.8047 76.7734 41.8672 77.0156 41.8984 77.3438C41.9297 77.6719 41.9297 78.1172 41.8984 78.6797C41.8672 79.3672 41.7422 80.1172 41.5234 80.9297C41.3203 81.7422 41.0469 82.5859 40.7031 83.4609C40.3594 84.3203 39.9609 85.1875 39.5078 86.0625C39.0703 86.9219 38.5938 87.7422 38.0781 88.5234ZM36.6953 88.8281C36.7578 88.5312 36.8125 88.2344 36.8594 87.9375C36.9219 87.6406 36.9922 87.3359 37.0703 87.0234C37.0391 87.0391 37.0078 87.0547 36.9766 87.0703C36.9609 87.0859 36.9375 87.1016 36.9062 87.1172C36.7344 87.1953 36.6172 87.1953 36.5547 87.1172C36.4922 87.0234 36.4609 86.8828 36.4609 86.6953C36.4609 86.6016 36.4531 86.4375 36.4375 86.2031C36.4219 85.9531 36.375 85.7031 36.2969 85.4531C36.2344 85.1875 36.1328 84.9609 35.9922 84.7734C35.8516 84.5703 35.6562 84.4688 35.4062 84.4688C35.0469 84.4688 34.6797 84.6562 34.3047 85.0312C33.9297 85.3906 33.5781 85.8359 33.25 86.3672C32.9219 86.8828 32.6484 87.4375 32.4297 88.0312C32.2109 88.625 32.0859 89.1562 32.0547 89.625C32.0234 90.375 32.1172 90.9141 32.3359 91.2422C32.5547 91.5703 32.8516 91.7344 33.2266 91.7344C33.5078 91.7344 33.8125 91.625 34.1406 91.4062C34.4844 91.1875 34.8125 90.9219 35.125 90.6094C35.4531 90.2969 35.75 89.9766 36.0156 89.6484C36.2969 89.3203 36.5234 89.0469 36.6953 88.8281ZM52.8438 88.125C52.375 88.8125 51.8438 89.4844 51.25 90.1406C50.6562 90.7812 50.0234 91.3594 49.3516 91.875C48.6953 92.375 48.0156 92.7812 47.3125 93.0938C46.625 93.4062 45.9531 93.5625 45.2969 93.5625C44.9531 93.5625 44.5781 93.4766 44.1719 93.3047C43.7812 93.1484 43.4219 92.8984 43.0938 92.5547C42.7656 92.2109 42.5 91.7656 42.2969 91.2188C42.1094 90.6719 42.0547 90.0078 42.1328 89.2266C42.1953 88.5859 42.3906 87.9141 42.7188 87.2109C43.0625 86.4922 43.4766 85.8359 43.9609 85.2422C44.4609 84.6484 45.0156 84.1562 45.625 83.7656C46.25 83.375 46.875 83.1797 47.5 83.1797C48.0938 83.1797 48.5234 83.3281 48.7891 83.625C49.0547 83.9219 49.1719 84.2891 49.1406 84.7266C49.0938 85.2109 48.9531 85.6562 48.7188 86.0625C48.5 86.4688 48.2344 86.8359 47.9219 87.1641C47.6094 87.4922 47.2734 87.7891 46.9141 88.0547C46.5703 88.3203 46.2422 88.5625 45.9297 88.7812C45.5859 89.0156 45.2578 89.2422 44.9453 89.4609C44.6328 89.6641 44.3594 89.8516 44.125 90.0234C44.1406 90.4141 44.2109 90.7422 44.3359 91.0078C44.4609 91.2734 44.6172 91.4922 44.8047 91.6641C44.9922 91.8203 45.2031 91.9375 45.4375 92.0156C45.6875 92.0781 45.9375 92.1094 46.1875 92.1094C46.7188 92.1094 47.2734 91.9453 47.8516 91.6172C48.4297 91.2734 48.9922 90.8672 49.5391 90.3984C50.1016 89.9141 50.6172 89.4141 51.0859 88.8984C51.5703 88.3828 51.9688 87.9375 52.2812 87.5625C52.3906 87.4375 52.5 87.3672 52.6094 87.3516C52.7344 87.3203 52.8281 87.3359 52.8906 87.3984C52.9688 87.4453 53.0078 87.5391 53.0078 87.6797C53.0078 87.8047 52.9531 87.9531 52.8438 88.125ZM46.8438 84.5156C46.6562 84.5156 46.4297 84.6094 46.1641 84.7969C45.9141 84.9844 45.6641 85.2578 45.4141 85.6172C45.1641 85.9609 44.9297 86.3906 44.7109 86.9062C44.4922 87.4062 44.3281 87.9844 44.2188 88.6406C44.4062 88.5 44.6094 88.3594 44.8281 88.2188C45.0469 88.0625 45.2656 87.8984 45.4844 87.7266C46.1562 87.2109 46.625 86.7578 46.8906 86.3672C47.1562 85.9766 47.3047 85.6406 47.3359 85.3594C47.3672 85.0625 47.3359 84.8516 47.2422 84.7266C47.1484 84.5859 47.0156 84.5156 46.8438 84.5156ZM62.0781 91.9219C62.0781 91.5938 62.1094 91.2188 62.1719 90.7969C62.25 90.375 62.3438 89.9453 62.4531 89.5078C62.5625 89.0547 62.6719 88.6172 62.7812 88.1953C62.8906 87.7734 62.9844 87.3984 63.0625 87.0703C63.1562 86.6641 63.1484 86.3516 63.0391 86.1328C62.9297 85.9141 62.7422 85.8047 62.4766 85.8047C62.3516 85.8047 62.1016 85.9141 61.7266 86.1328C61.3672 86.3516 60.9688 86.7344 60.5312 87.2812C60.1094 87.8125 59.6875 88.5391 59.2656 89.4609C58.8594 90.3672 58.5391 91.5234 58.3047 92.9297C58.0078 93.0859 57.7266 93.1875 57.4609 93.2344C57.3203 93.2656 57.1953 93.2891 57.0859 93.3047C56.7734 93.3203 56.5703 93.2656 56.4766 93.1406C56.3828 93.0312 56.3984 92.75 56.5234 92.2969C56.5859 92.0781 56.6953 91.7266 56.8516 91.2422C57.0234 90.7578 57.1875 90.2344 57.3438 89.6719C57.5 89.0938 57.6328 88.5234 57.7422 87.9609C57.8672 87.3828 57.9297 86.8828 57.9297 86.4609C57.9297 86.1641 57.875 85.9609 57.7656 85.8516C57.6719 85.7422 57.5312 85.6875 57.3438 85.6875C57.2031 85.6875 56.9688 85.7656 56.6406 85.9219C56.3125 86.0781 55.9453 86.3828 55.5391 86.8359C55.1328 87.2891 54.7266 87.9219 54.3203 88.7344C53.9297 89.5312 53.5938 90.5703 53.3125 91.8516V91.8047C53.2812 91.9297 53.25 92.0547 53.2188 92.1797C53.1875 92.2891 53.1641 92.4062 53.1484 92.5312C53.1328 92.6562 53.1094 92.7734 53.0781 92.8828L51.9062 93.3984C51.8281 93.4297 51.7266 93.4531 51.6016 93.4688C51.4922 93.4844 51.3828 93.4609 51.2734 93.3984C51.1797 93.3516 51.1094 93.2422 51.0625 93.0703C51.0156 92.8984 51.0312 92.6406 51.1094 92.2969L52.5859 86.1797C52.6328 85.9766 52.6719 85.7812 52.7031 85.5938C52.7344 85.4219 52.75 85.2578 52.75 85.1016C52.7656 84.9297 52.7578 84.7891 52.7266 84.6797C52.9922 84.5547 53.2266 84.4609 53.4297 84.3984C53.6328 84.3359 53.7969 84.2891 53.9219 84.2578C54.0781 84.2109 54.2109 84.1875 54.3203 84.1875C54.8203 84.1875 54.9844 84.6172 54.8125 85.4766C54.75 85.7266 54.6562 86.0938 54.5312 86.5781C54.8281 86.2031 55.1406 85.8516 55.4688 85.5234C55.8125 85.1797 56.1562 84.875 56.5 84.6094C56.8438 84.3438 57.1875 84.1328 57.5312 83.9766C57.8906 83.8203 58.2422 83.7422 58.5859 83.7422C58.8516 83.7422 59.0703 83.8203 59.2422 83.9766C59.4297 84.1328 59.5703 84.3438 59.6641 84.6094C59.7734 84.8594 59.8359 85.1641 59.8516 85.5234C59.8672 85.8672 59.8516 86.2266 59.8047 86.6016C60.0547 86.2734 60.3281 85.9453 60.625 85.6172C60.9375 85.2734 61.2578 84.9688 61.5859 84.7031C61.9297 84.4375 62.2812 84.2188 62.6406 84.0469C63 83.875 63.3594 83.7891 63.7188 83.7891C64.1406 83.7891 64.4609 83.9141 64.6797 84.1641C64.9141 84.4141 65.0703 84.7344 65.1484 85.125C65.2422 85.5156 65.2656 85.9375 65.2188 86.3906C65.1875 86.8438 65.125 87.2812 65.0312 87.7031L64.2344 90.8672C64.0625 91.6484 64.2266 92.0391 64.7266 92.0391C65.1172 92.0391 65.5469 91.8516 66.0156 91.4766C66.4844 91.1016 66.9375 90.6562 67.375 90.1406C67.8281 89.625 68.25 89.0938 68.6406 88.5469C69.0312 88 69.3594 87.5625 69.625 87.2344C69.7188 87.125 69.8125 87.0625 69.9062 87.0469C70.0156 87.0312 70.1016 87.0547 70.1641 87.1172C70.2422 87.1641 70.2812 87.25 70.2812 87.375C70.2969 87.5 70.2578 87.6562 70.1641 87.8438C69.8516 88.3906 69.4688 89 69.0156 89.6719C68.5625 90.3281 68.0625 90.9453 67.5156 91.5234C66.9844 92.1016 66.4141 92.5859 65.8047 92.9766C65.1953 93.3672 64.5625 93.5625 63.9062 93.5625C63.6875 93.5625 63.4688 93.5391 63.25 93.4922C63.0469 93.4453 62.8516 93.3594 62.6641 93.2344C62.4922 93.1094 62.3516 92.9453 62.2422 92.7422C62.1328 92.5234 62.0781 92.25 62.0781 91.9219ZM73.5391 79.1953C73.4922 79.3672 73.3984 79.5391 73.2578 79.7109C73.1328 79.8672 72.9844 80 72.8125 80.1094C72.6562 80.2031 72.4922 80.2656 72.3203 80.2969C72.1484 80.3281 72.0078 80.2969 71.8984 80.2031C71.5703 79.9531 71.3984 79.6875 71.3828 79.4062C71.3672 79.1094 71.4375 78.8359 71.5938 78.5859C71.75 78.3203 71.9453 78.1016 72.1797 77.9297C72.4141 77.7422 72.6172 77.6328 72.7891 77.6016C72.9609 77.5703 73.1016 77.6094 73.2109 77.7188C73.3359 77.8125 73.4297 77.9453 73.4922 78.1172C73.5547 78.2734 73.5859 78.4531 73.5859 78.6562C73.6016 78.8594 73.5859 79.0391 73.5391 79.1953ZM70.3047 84.1875C70.3828 84.0938 70.5312 84.0156 70.75 83.9531C70.9688 83.8906 71.1953 83.8438 71.4297 83.8125C71.6641 83.7656 71.875 83.7422 72.0625 83.7422C72.2656 83.7266 72.3828 83.7266 72.4141 83.7422C72.4297 83.7578 72.3906 83.9219 72.2969 84.2344C72.2031 84.5469 72.0859 84.9141 71.9453 85.3359C71.8047 85.7578 71.6562 86.1953 71.5 86.6484C71.3438 87.0859 71.2266 87.4453 71.1484 87.7266C71.0703 88.0078 70.9766 88.3281 70.8672 88.6875C70.7578 89.0312 70.6562 89.375 70.5625 89.7188C70.4844 90.0469 70.4297 90.3594 70.3984 90.6562C70.3672 90.9531 70.3906 91.1797 70.4688 91.3359C70.5469 91.5234 70.6328 91.6562 70.7266 91.7344C70.8203 91.7969 70.9219 91.8281 71.0312 91.8281C71.3438 91.8281 71.7344 91.6562 72.2031 91.3125C72.6875 90.9688 73.1719 90.5625 73.6562 90.0938C74.1562 89.6094 74.6172 89.125 75.0391 88.6406C75.4609 88.1406 75.7734 87.7422 75.9766 87.4453C76.1016 87.2891 76.2266 87.1875 76.3516 87.1406C76.4922 87.0938 76.6016 87.1016 76.6797 87.1641C76.7734 87.2266 76.8203 87.3281 76.8203 87.4688C76.8359 87.6094 76.7891 87.7734 76.6797 87.9609C76.4297 88.3984 76.0625 88.9219 75.5781 89.5312C75.0938 90.125 74.5781 90.7031 74.0312 91.2656C73.4844 91.8125 72.9453 92.2812 72.4141 92.6719C71.8984 93.0625 71.4766 93.2656 71.1484 93.2812C70.8828 93.2969 70.6172 93.25 70.3516 93.1406C70.1016 93.0469 69.8672 92.9141 69.6484 92.7422C69.4453 92.5547 69.2734 92.3438 69.1328 92.1094C68.9922 91.8594 68.9141 91.6016 68.8984 91.3359C68.8516 90.9453 68.8516 90.4141 68.8984 89.7422C68.9453 89.0547 69.0312 88.3594 69.1562 87.6562C69.2812 86.9375 69.4375 86.2578 69.625 85.6172C69.8281 84.9766 70.0547 84.5 70.3047 84.1875ZM86.9922 88.3359C86.7734 88.6484 86.4922 89.0391 86.1484 89.5078C85.8047 89.9609 85.4453 90.4219 85.0703 90.8906C84.7109 91.3438 84.3516 91.7656 83.9922 92.1562C83.6484 92.5312 83.3594 92.7969 83.125 92.9531C82.9688 93.0469 82.7891 93.125 82.5859 93.1875C82.3828 93.25 82.1719 93.2891 81.9531 93.3047C81.75 93.3203 81.5547 93.3047 81.3672 93.2578C81.1797 93.2266 81.0156 93.1641 80.875 93.0703C80.7344 92.9609 80.6172 92.8047 80.5234 92.6016C80.4453 92.4297 80.3672 92.2031 80.2891 91.9219C80.2266 91.6406 80.2031 91.2891 80.2188 90.8672C79.8438 91.4922 79.4297 91.9766 78.9766 92.3203C78.5234 92.6484 78.0938 92.8906 77.6875 93.0469C77.2188 93.2188 76.75 93.3203 76.2812 93.3516C76.0625 93.3516 75.8281 93.2734 75.5781 93.1172C75.3281 92.9766 75.1172 92.75 74.9453 92.4375C74.7734 92.1094 74.6641 91.6953 74.6172 91.1953C74.5703 90.6797 74.6328 90.0703 74.8047 89.3672C75.0234 88.4141 75.3672 87.5469 75.8359 86.7656C76.3203 85.9844 76.8438 85.3203 77.4062 84.7734C77.9688 84.2109 78.5234 83.7891 79.0703 83.5078C79.6172 83.2266 80.0703 83.1016 80.4297 83.1328C80.8516 83.2109 81.1953 83.3359 81.4609 83.5078C81.6797 83.6641 81.8203 83.8984 81.8828 84.2109C81.9609 84.5078 81.8359 84.9062 81.5078 85.4062C81.7266 85.3594 81.9062 85.3281 82.0469 85.3125C82.2031 85.2969 82.3203 85.2891 82.3984 85.2891C82.4922 85.2891 82.5547 85.2969 82.5859 85.3125C82.6016 85.3438 82.6094 85.4141 82.6094 85.5234C82.6094 85.6172 82.5859 85.7969 82.5391 86.0625C82.4922 86.3281 82.4219 86.6875 82.3281 87.1406C82.2344 87.5938 82.1094 88.1797 81.9531 88.8984C81.9219 89.0391 81.8906 89.1719 81.8594 89.2969C81.8438 89.4062 81.8203 89.5234 81.7891 89.6484C81.7734 89.7578 81.75 89.8906 81.7188 90.0469C81.6875 90.2031 81.6484 90.3984 81.6016 90.6328C81.5859 90.7734 81.5781 90.9297 81.5781 91.1016C81.5938 91.2578 81.625 91.4062 81.6719 91.5469C81.7188 91.6875 81.7891 91.8047 81.8828 91.8984C81.9922 91.9766 82.1406 92.0156 82.3281 92.0156C82.4844 92.0156 82.6875 91.9219 82.9375 91.7344C83.1875 91.5312 83.4531 91.2812 83.7344 90.9844C84.0156 90.6719 84.3047 90.3359 84.6016 89.9766C84.9141 89.6016 85.2031 89.2422 85.4688 88.8984C85.7344 88.5547 85.9688 88.25 86.1719 87.9844C86.3906 87.7188 86.5469 87.5234 86.6406 87.3984C86.7656 87.2578 86.8906 87.1797 87.0156 87.1641C87.1406 87.1328 87.2344 87.1641 87.2969 87.2578C87.3594 87.3516 87.3672 87.4922 87.3203 87.6797C87.2891 87.8672 87.1797 88.0859 86.9922 88.3359ZM80.125 89.3672C80.2031 89.0547 80.2969 88.6875 80.4062 88.2656C80.5156 87.8438 80.6094 87.4375 80.6875 87.0469C80.7656 86.6562 80.8203 86.3359 80.8516 86.0859C80.8984 85.8203 80.8906 85.6953 80.8281 85.7109C80.75 85.7266 80.6641 85.75 80.5703 85.7812C80.4922 85.8125 80.3906 85.8359 80.2656 85.8516C80.1406 85.8672 80.0156 85.8906 79.8906 85.9219C80.0156 85.6719 80.0859 85.4688 80.1016 85.3125C80.1328 85.1406 80.1406 85.0078 80.125 84.9141C80.1094 84.8047 80.0781 84.7188 80.0312 84.6562C79.8594 84.5156 79.5547 84.6328 79.1172 85.0078C78.6953 85.3672 78.2031 86.0391 77.6406 87.0234C77.4062 87.4297 77.2188 87.8672 77.0781 88.3359C76.9375 88.7891 76.8359 89.2188 76.7734 89.625C76.7266 90.0312 76.7188 90.3906 76.75 90.7031C76.7812 91 76.8438 91.1953 76.9375 91.2891C77.1094 91.4609 77.3047 91.5469 77.5234 91.5469C77.7422 91.5312 77.9609 91.4688 78.1797 91.3594C78.4141 91.2344 78.6406 91.0781 78.8594 90.8906C79.0938 90.7031 79.2969 90.5078 79.4688 90.3047C79.6562 90.1016 79.8047 89.9141 79.9141 89.7422C80.0391 89.5703 80.1094 89.4453 80.125 89.3672ZM99.6016 88.5234C99.5234 89.0078 99.4453 89.4688 99.3672 89.9062C99.3047 90.3438 99.2656 90.6953 99.25 90.9609C99.2344 91.3516 99.3047 91.6328 99.4609 91.8047C99.6172 91.9766 99.7891 92.0625 99.9766 92.0625C100.195 92.0625 100.461 91.9531 100.773 91.7344C101.102 91.5156 101.445 91.2422 101.805 90.9141C102.164 90.5859 102.523 90.2266 102.883 89.8359C103.242 89.4453 103.57 89.0781 103.867 88.7344C104.18 88.375 104.438 88.0625 104.641 87.7969C104.859 87.5312 105.008 87.3594 105.086 87.2812C105.18 87.1875 105.273 87.1328 105.367 87.1172C105.477 87.1016 105.562 87.1172 105.625 87.1641C105.688 87.2109 105.719 87.2969 105.719 87.4219C105.719 87.5469 105.656 87.7031 105.531 87.8906C105.344 88.1875 105.102 88.5391 104.805 88.9453C104.508 89.3359 104.18 89.7422 103.82 90.1641C103.461 90.5859 103.078 91 102.672 91.4062C102.281 91.8125 101.883 92.1719 101.477 92.4844C101.086 92.7969 100.703 93.0469 100.328 93.2344C99.9688 93.4375 99.6406 93.5391 99.3438 93.5391C99.125 93.5391 98.9141 93.4766 98.7109 93.3516C98.5234 93.2266 98.3516 93.0625 98.1953 92.8594C98.0391 92.6562 97.9141 92.4297 97.8203 92.1797C97.7422 91.9297 97.7109 91.6797 97.7266 91.4297C97.7422 91.3203 97.7656 91.1328 97.7969 90.8672C97.1406 91.6016 96.4766 92.1875 95.8047 92.625C95.1484 93.0469 94.5156 93.2578 93.9062 93.2578C93.6875 93.2578 93.4531 93.2031 93.2031 93.0938C92.9531 92.9844 92.7266 92.8047 92.5234 92.5547C92.3359 92.3047 92.1797 91.9766 92.0547 91.5703C91.9297 91.1641 91.8828 90.6719 91.9141 90.0938C91.9609 89.1875 92.1406 88.3281 92.4531 87.5156C92.7656 86.7031 93.1562 86 93.625 85.4062C94.1094 84.7969 94.6484 84.3203 95.2422 83.9766C95.8516 83.6172 96.4609 83.4375 97.0703 83.4375C97.3359 83.4375 97.5781 83.5078 97.7969 83.6484C98.0156 83.7734 98.2031 83.9453 98.3594 84.1641C98.5156 84.3672 98.6406 84.5938 98.7344 84.8438C98.8438 85.0938 98.9219 85.3281 98.9688 85.5469C99.0781 85.0938 99.1797 84.6484 99.2734 84.2109C99.3672 83.7734 99.4609 83.3594 99.5547 82.9688C99.7109 82.3906 99.875 81.7656 100.047 81.0938C100.203 80.5156 100.383 79.8516 100.586 79.1016C100.789 78.3516 101.016 77.5625 101.266 76.7344C101.422 76.6094 101.57 76.5156 101.711 76.4531C101.852 76.3906 101.984 76.3438 102.109 76.3125C102.25 76.2656 102.383 76.2422 102.508 76.2422C102.664 76.2422 102.805 76.2656 102.93 76.3125C103.055 76.3438 103.156 76.4453 103.234 76.6172C103.328 76.7734 103.391 77.0156 103.422 77.3438C103.453 77.6719 103.453 78.1172 103.422 78.6797C103.391 79.3672 103.266 80.1172 103.047 80.9297C102.844 81.7422 102.57 82.5859 102.227 83.4609C101.883 84.3203 101.484 85.1875 101.031 86.0625C100.594 86.9219 100.117 87.7422 99.6016 88.5234ZM98.2188 88.8281C98.2812 88.5312 98.3359 88.2344 98.3828 87.9375C98.4453 87.6406 98.5156 87.3359 98.5938 87.0234C98.5625 87.0391 98.5312 87.0547 98.5 87.0703C98.4844 87.0859 98.4609 87.1016 98.4297 87.1172C98.2578 87.1953 98.1406 87.1953 98.0781 87.1172C98.0156 87.0234 97.9844 86.8828 97.9844 86.6953C97.9844 86.6016 97.9766 86.4375 97.9609 86.2031C97.9453 85.9531 97.8984 85.7031 97.8203 85.4531C97.7578 85.1875 97.6562 84.9609 97.5156 84.7734C97.375 84.5703 97.1797 84.4688 96.9297 84.4688C96.5703 84.4688 96.2031 84.6562 95.8281 85.0312C95.4531 85.3906 95.1016 85.8359 94.7734 86.3672C94.4453 86.8828 94.1719 87.4375 93.9531 88.0312C93.7344 88.625 93.6094 89.1562 93.5781 89.625C93.5469 90.375 93.6406 90.9141 93.8594 91.2422C94.0781 91.5703 94.375 91.7344 94.75 91.7344C95.0312 91.7344 95.3359 91.625 95.6641 91.4062C96.0078 91.1875 96.3359 90.9219 96.6484 90.6094C96.9766 90.2969 97.2734 89.9766 97.5391 89.6484C97.8203 89.3203 98.0469 89.0469 98.2188 88.8281ZM114.367 88.125C113.898 88.8125 113.367 89.4844 112.773 90.1406C112.18 90.7812 111.547 91.3594 110.875 91.875C110.219 92.375 109.539 92.7812 108.836 93.0938C108.148 93.4062 107.477 93.5625 106.82 93.5625C106.477 93.5625 106.102 93.4766 105.695 93.3047C105.305 93.1484 104.945 92.8984 104.617 92.5547C104.289 92.2109 104.023 91.7656 103.82 91.2188C103.633 90.6719 103.578 90.0078 103.656 89.2266C103.719 88.5859 103.914 87.9141 104.242 87.2109C104.586 86.4922 105 85.8359 105.484 85.2422C105.984 84.6484 106.539 84.1562 107.148 83.7656C107.773 83.375 108.398 83.1797 109.023 83.1797C109.617 83.1797 110.047 83.3281 110.312 83.625C110.578 83.9219 110.695 84.2891 110.664 84.7266C110.617 85.2109 110.477 85.6562 110.242 86.0625C110.023 86.4688 109.758 86.8359 109.445 87.1641C109.133 87.4922 108.797 87.7891 108.438 88.0547C108.094 88.3203 107.766 88.5625 107.453 88.7812C107.109 89.0156 106.781 89.2422 106.469 89.4609C106.156 89.6641 105.883 89.8516 105.648 90.0234C105.664 90.4141 105.734 90.7422 105.859 91.0078C105.984 91.2734 106.141 91.4922 106.328 91.6641C106.516 91.8203 106.727 91.9375 106.961 92.0156C107.211 92.0781 107.461 92.1094 107.711 92.1094C108.242 92.1094 108.797 91.9453 109.375 91.6172C109.953 91.2734 110.516 90.8672 111.062 90.3984C111.625 89.9141 112.141 89.4141 112.609 88.8984C113.094 88.3828 113.492 87.9375 113.805 87.5625C113.914 87.4375 114.023 87.3672 114.133 87.3516C114.258 87.3203 114.352 87.3359 114.414 87.3984C114.492 87.4453 114.531 87.5391 114.531 87.6797C114.531 87.8047 114.477 87.9531 114.367 88.125ZM108.367 84.5156C108.18 84.5156 107.953 84.6094 107.688 84.7969C107.438 84.9844 107.188 85.2578 106.938 85.6172C106.688 85.9609 106.453 86.3906 106.234 86.9062C106.016 87.4062 105.852 87.9844 105.742 88.6406C105.93 88.5 106.133 88.3594 106.352 88.2188C106.57 88.0625 106.789 87.8984 107.008 87.7266C107.68 87.2109 108.148 86.7578 108.414 86.3672C108.68 85.9766 108.828 85.6406 108.859 85.3594C108.891 85.0625 108.859 84.8516 108.766 84.7266C108.672 84.5859 108.539 84.5156 108.367 84.5156ZM126.859 88.5234C126.781 89.0078 126.703 89.4688 126.625 89.9062C126.562 90.3438 126.523 90.6953 126.508 90.9609C126.492 91.3516 126.562 91.6328 126.719 91.8047C126.875 91.9766 127.047 92.0625 127.234 92.0625C127.453 92.0625 127.719 91.9531 128.031 91.7344C128.359 91.5156 128.703 91.2422 129.062 90.9141C129.422 90.5859 129.781 90.2266 130.141 89.8359C130.5 89.4453 130.828 89.0781 131.125 88.7344C131.438 88.375 131.695 88.0625 131.898 87.7969C132.117 87.5312 132.266 87.3594 132.344 87.2812C132.438 87.1875 132.531 87.1328 132.625 87.1172C132.734 87.1016 132.82 87.1172 132.883 87.1641C132.945 87.2109 132.977 87.2969 132.977 87.4219C132.977 87.5469 132.914 87.7031 132.789 87.8906C132.602 88.1875 132.359 88.5391 132.062 88.9453C131.766 89.3359 131.438 89.7422 131.078 90.1641C130.719 90.5859 130.336 91 129.93 91.4062C129.539 91.8125 129.141 92.1719 128.734 92.4844C128.344 92.7969 127.961 93.0469 127.586 93.2344C127.227 93.4375 126.898 93.5391 126.602 93.5391C126.383 93.5391 126.172 93.4766 125.969 93.3516C125.781 93.2266 125.609 93.0625 125.453 92.8594C125.297 92.6562 125.172 92.4297 125.078 92.1797C125 91.9297 124.969 91.6797 124.984 91.4297C125 91.3203 125.023 91.1328 125.055 90.8672C124.398 91.6016 123.734 92.1875 123.062 92.625C122.406 93.0469 121.773 93.2578 121.164 93.2578C120.945 93.2578 120.711 93.2031 120.461 93.0938C120.211 92.9844 119.984 92.8047 119.781 92.5547C119.594 92.3047 119.438 91.9766 119.312 91.5703C119.188 91.1641 119.141 90.6719 119.172 90.0938C119.219 89.1875 119.398 88.3281 119.711 87.5156C120.023 86.7031 120.414 86 120.883 85.4062C121.367 84.7969 121.906 84.3203 122.5 83.9766C123.109 83.6172 123.719 83.4375 124.328 83.4375C124.594 83.4375 124.836 83.5078 125.055 83.6484C125.273 83.7734 125.461 83.9453 125.617 84.1641C125.773 84.3672 125.898 84.5938 125.992 84.8438C126.102 85.0938 126.18 85.3281 126.227 85.5469C126.336 85.0938 126.438 84.6484 126.531 84.2109C126.625 83.7734 126.719 83.3594 126.812 82.9688C126.969 82.3906 127.133 81.7656 127.305 81.0938C127.461 80.5156 127.641 79.8516 127.844 79.1016C128.047 78.3516 128.273 77.5625 128.523 76.7344C128.68 76.6094 128.828 76.5156 128.969 76.4531C129.109 76.3906 129.242 76.3438 129.367 76.3125C129.508 76.2656 129.641 76.2422 129.766 76.2422C129.922 76.2422 130.062 76.2656 130.188 76.3125C130.312 76.3438 130.414 76.4453 130.492 76.6172C130.586 76.7734 130.648 77.0156 130.68 77.3438C130.711 77.6719 130.711 78.1172 130.68 78.6797C130.648 79.3672 130.523 80.1172 130.305 80.9297C130.102 81.7422 129.828 82.5859 129.484 83.4609C129.141 84.3203 128.742 85.1875 128.289 86.0625C127.852 86.9219 127.375 87.7422 126.859 88.5234ZM125.477 88.8281C125.539 88.5312 125.594 88.2344 125.641 87.9375C125.703 87.6406 125.773 87.3359 125.852 87.0234C125.82 87.0391 125.789 87.0547 125.758 87.0703C125.742 87.0859 125.719 87.1016 125.688 87.1172C125.516 87.1953 125.398 87.1953 125.336 87.1172C125.273 87.0234 125.242 86.8828 125.242 86.6953C125.242 86.6016 125.234 86.4375 125.219 86.2031C125.203 85.9531 125.156 85.7031 125.078 85.4531C125.016 85.1875 124.914 84.9609 124.773 84.7734C124.633 84.5703 124.438 84.4688 124.188 84.4688C123.828 84.4688 123.461 84.6562 123.086 85.0312C122.711 85.3906 122.359 85.8359 122.031 86.3672C121.703 86.8828 121.43 87.4375 121.211 88.0312C120.992 88.625 120.867 89.1562 120.836 89.625C120.805 90.375 120.898 90.9141 121.117 91.2422C121.336 91.5703 121.633 91.7344 122.008 91.7344C122.289 91.7344 122.594 91.625 122.922 91.4062C123.266 91.1875 123.594 90.9219 123.906 90.6094C124.234 90.2969 124.531 89.9766 124.797 89.6484C125.078 89.3203 125.305 89.0469 125.477 88.8281ZM143.031 88.3359C142.812 88.6484 142.531 89.0391 142.188 89.5078C141.844 89.9609 141.484 90.4219 141.109 90.8906C140.75 91.3438 140.391 91.7656 140.031 92.1562C139.688 92.5312 139.398 92.7969 139.164 92.9531C139.008 93.0469 138.828 93.125 138.625 93.1875C138.422 93.25 138.211 93.2891 137.992 93.3047C137.789 93.3203 137.594 93.3047 137.406 93.2578C137.219 93.2266 137.055 93.1641 136.914 93.0703C136.773 92.9609 136.656 92.8047 136.562 92.6016C136.484 92.4297 136.406 92.2031 136.328 91.9219C136.266 91.6406 136.242 91.2891 136.258 90.8672C135.883 91.4922 135.469 91.9766 135.016 92.3203C134.562 92.6484 134.133 92.8906 133.727 93.0469C133.258 93.2188 132.789 93.3203 132.32 93.3516C132.102 93.3516 131.867 93.2734 131.617 93.1172C131.367 92.9766 131.156 92.75 130.984 92.4375C130.812 92.1094 130.703 91.6953 130.656 91.1953C130.609 90.6797 130.672 90.0703 130.844 89.3672C131.062 88.4141 131.406 87.5469 131.875 86.7656C132.359 85.9844 132.883 85.3203 133.445 84.7734C134.008 84.2109 134.562 83.7891 135.109 83.5078C135.656 83.2266 136.109 83.1016 136.469 83.1328C136.891 83.2109 137.234 83.3359 137.5 83.5078C137.719 83.6641 137.859 83.8984 137.922 84.2109C138 84.5078 137.875 84.9062 137.547 85.4062C137.766 85.3594 137.945 85.3281 138.086 85.3125C138.242 85.2969 138.359 85.2891 138.438 85.2891C138.531 85.2891 138.594 85.2969 138.625 85.3125C138.641 85.3438 138.648 85.4141 138.648 85.5234C138.648 85.6172 138.625 85.7969 138.578 86.0625C138.531 86.3281 138.461 86.6875 138.367 87.1406C138.273 87.5938 138.148 88.1797 137.992 88.8984C137.961 89.0391 137.93 89.1719 137.898 89.2969C137.883 89.4062 137.859 89.5234 137.828 89.6484C137.812 89.7578 137.789 89.8906 137.758 90.0469C137.727 90.2031 137.688 90.3984 137.641 90.6328C137.625 90.7734 137.617 90.9297 137.617 91.1016C137.633 91.2578 137.664 91.4062 137.711 91.5469C137.758 91.6875 137.828 91.8047 137.922 91.8984C138.031 91.9766 138.18 92.0156 138.367 92.0156C138.523 92.0156 138.727 91.9219 138.977 91.7344C139.227 91.5312 139.492 91.2812 139.773 90.9844C140.055 90.6719 140.344 90.3359 140.641 89.9766C140.953 89.6016 141.242 89.2422 141.508 88.8984C141.773 88.5547 142.008 88.25 142.211 87.9844C142.43 87.7188 142.586 87.5234 142.68 87.3984C142.805 87.2578 142.93 87.1797 143.055 87.1641C143.18 87.1328 143.273 87.1641 143.336 87.2578C143.398 87.3516 143.406 87.4922 143.359 87.6797C143.328 87.8672 143.219 88.0859 143.031 88.3359ZM136.164 89.3672C136.242 89.0547 136.336 88.6875 136.445 88.2656C136.555 87.8438 136.648 87.4375 136.727 87.0469C136.805 86.6562 136.859 86.3359 136.891 86.0859C136.938 85.8203 136.93 85.6953 136.867 85.7109C136.789 85.7266 136.703 85.75 136.609 85.7812C136.531 85.8125 136.43 85.8359 136.305 85.8516C136.18 85.8672 136.055 85.8906 135.93 85.9219C136.055 85.6719 136.125 85.4688 136.141 85.3125C136.172 85.1406 136.18 85.0078 136.164 84.9141C136.148 84.8047 136.117 84.7188 136.07 84.6562C135.898 84.5156 135.594 84.6328 135.156 85.0078C134.734 85.3672 134.242 86.0391 133.68 87.0234C133.445 87.4297 133.258 87.8672 133.117 88.3359C132.977 88.7891 132.875 89.2188 132.812 89.625C132.766 90.0312 132.758 90.3906 132.789 90.7031C132.82 91 132.883 91.1953 132.977 91.2891C133.148 91.4609 133.344 91.5469 133.562 91.5469C133.781 91.5312 134 91.4688 134.219 91.3594C134.453 91.2344 134.68 91.0781 134.898 90.8906C135.133 90.7031 135.336 90.5078 135.508 90.3047C135.695 90.1016 135.844 89.9141 135.953 89.7422C136.078 89.5703 136.148 89.4453 136.164 89.3672ZM148.422 93.5859C148.062 93.5859 147.75 93.5156 147.484 93.375C147.234 93.25 147.031 93.0781 146.875 92.8594C146.719 92.6406 146.617 92.3906 146.57 92.1094C146.523 91.8125 146.539 91.5 146.617 91.1719C146.664 90.9531 146.742 90.6641 146.852 90.3047C146.961 89.9297 147.07 89.5312 147.18 89.1094C147.305 88.6719 147.414 88.2422 147.508 87.8203C147.617 87.3828 147.688 86.9922 147.719 86.6484C147.75 86.2891 147.734 86 147.672 85.7812C147.609 85.5469 147.477 85.4297 147.273 85.4297C147.023 85.4297 146.766 85.5156 146.5 85.6875C146.234 85.8438 145.961 86.0625 145.68 86.3438C145.414 86.625 145.141 86.9531 144.859 87.3281C144.594 87.6875 144.328 88.0625 144.062 88.4531C143.922 88.9844 143.805 89.4531 143.711 89.8594C143.617 90.25 143.531 90.6094 143.453 90.9375C143.391 91.25 143.328 91.5312 143.266 91.7812C143.203 92.0156 143.148 92.2422 143.102 92.4609C143.055 92.6172 142.914 92.7734 142.68 92.9297C142.445 93.0703 142.195 93.1875 141.93 93.2812C141.664 93.375 141.438 93.4219 141.25 93.4219C141.047 93.4219 140.961 93.3516 140.992 93.2109C141.008 93.1172 141.062 92.9062 141.156 92.5781C141.234 92.25 141.336 91.8672 141.461 91.4297C141.57 90.9766 141.688 90.5 141.812 90C141.938 89.5 142.055 89.0234 142.164 88.5703C142.242 88.2109 142.328 87.8125 142.422 87.375C142.5 87 142.594 86.5625 142.703 86.0625C142.828 85.5625 142.969 85.0156 143.125 84.4219C143.234 84.3281 143.344 84.2578 143.453 84.2109C143.578 84.1484 143.703 84.1016 143.828 84.0703C143.953 84.0234 144.086 83.9922 144.227 83.9766C144.352 83.9766 144.477 83.9844 144.602 84C144.711 84.0156 144.82 84.0469 144.93 84.0938C145.055 84.125 145.164 84.1797 145.258 84.2578C145.211 84.3672 145.156 84.5234 145.094 84.7266C145.031 84.9141 144.969 85.1172 144.906 85.3359C144.844 85.5859 144.766 85.8438 144.672 86.1094C144.875 85.8281 145.102 85.5469 145.352 85.2656C145.617 84.9688 145.898 84.7031 146.195 84.4688C146.508 84.2344 146.836 84.0469 147.18 83.9062C147.523 83.75 147.875 83.6719 148.234 83.6719C148.531 83.6719 148.797 83.7578 149.031 83.9297C149.266 84.1016 149.445 84.3438 149.57 84.6562C149.711 84.9531 149.789 85.3125 149.805 85.7344C149.836 86.1562 149.781 86.6172 149.641 87.1172L149.383 88.1484C149.305 88.4766 149.203 88.8672 149.078 89.3203C148.969 89.7578 148.828 90.2422 148.656 90.7734C148.562 91.1172 148.523 91.4141 148.539 91.6641C148.57 91.9141 148.727 92.0391 149.008 92.0391C149.289 92.0391 149.641 91.8672 150.062 91.5234C150.5 91.1797 150.938 90.7656 151.375 90.2812C151.812 89.7969 152.227 89.3047 152.617 88.8047C153.008 88.2891 153.305 87.875 153.508 87.5625C153.648 87.3594 153.781 87.2266 153.906 87.1641C154.031 87.1016 154.125 87.0938 154.188 87.1406C154.266 87.1875 154.305 87.2969 154.305 87.4688C154.305 87.625 154.242 87.8281 154.117 88.0781C154.008 88.2969 153.836 88.5859 153.602 88.9453C153.383 89.3047 153.117 89.6875 152.805 90.0938C152.492 90.5 152.156 90.9141 151.797 91.3359C151.438 91.7422 151.062 92.1172 150.672 92.4609C150.281 92.7891 149.891 93.0547 149.5 93.2578C149.125 93.4766 148.766 93.5859 148.422 93.5859ZM155.5 94.7344C156.375 94.7031 157.008 94.8281 157.398 95.1094C157.805 95.3906 157.969 95.7812 157.891 96.2812C157.859 96.5469 157.742 96.7969 157.539 97.0312C157.336 97.2812 157.07 97.5 156.742 97.6875C156.414 97.8906 156.039 98.0625 155.617 98.2031C155.195 98.3438 154.75 98.4375 154.281 98.4844C154.078 98.5156 153.922 98.5 153.812 98.4375C153.703 98.375 153.641 98.2969 153.625 98.2031C153.625 98.125 153.672 98.0391 153.766 97.9453C153.875 97.8516 154.031 97.7812 154.234 97.7344C154.75 97.6094 155.195 97.4375 155.57 97.2188C155.945 97 156.156 96.75 156.203 96.4688C156.234 96.2031 156.094 95.9922 155.781 95.8359C155.469 95.6953 155.047 95.6484 154.516 95.6953C154.328 95.7109 154.18 95.6797 154.07 95.6016C153.961 95.5234 153.922 95.3984 153.953 95.2266C153.953 95.1797 153.984 95.0781 154.047 94.9219C154.109 94.7656 154.18 94.5938 154.258 94.4062C154.336 94.2188 154.406 94.0312 154.469 93.8438C154.547 93.6562 154.609 93.5156 154.656 93.4219C154.203 93.2812 153.828 93.0703 153.531 92.7891C153.234 92.5078 152.992 92.1875 152.805 91.8281C152.617 91.4531 152.492 91.0625 152.43 90.6562C152.352 90.2344 152.312 89.8203 152.312 89.4141C152.312 88.9297 152.422 88.3281 152.641 87.6094C152.859 86.8906 153.18 86.2031 153.602 85.5469C154.039 84.875 154.586 84.3047 155.242 83.8359C155.898 83.3516 156.672 83.1094 157.562 83.1094C158.062 83.1094 158.484 83.2812 158.828 83.625C159.188 83.9688 159.359 84.4375 159.344 85.0312C159.344 85.3125 159.297 85.5938 159.203 85.875C159.109 86.1406 158.984 86.3828 158.828 86.6016C158.672 86.8047 158.484 86.9688 158.266 87.0938C158.062 87.2188 157.836 87.2812 157.586 87.2812C157.383 87.2812 157.227 87.2109 157.117 87.0703C157.023 86.9141 156.961 86.7422 156.93 86.5547C156.914 86.3516 156.914 86.1562 156.93 85.9688C156.961 85.7812 156.992 85.6562 157.023 85.5938C157.102 85.4844 157.188 85.4062 157.281 85.3594C157.375 85.3125 157.484 85.2578 157.609 85.1953C157.703 85.1484 157.773 85.0781 157.82 84.9844C157.883 84.8906 157.914 84.7891 157.914 84.6797C157.914 84.5703 157.883 84.4766 157.82 84.3984C157.758 84.3203 157.656 84.2812 157.516 84.2812C157.375 84.2812 157.117 84.3984 156.742 84.6328C156.383 84.8516 156.008 85.1875 155.617 85.6406C155.242 86.0781 154.906 86.6328 154.609 87.3047C154.312 87.9766 154.156 88.7578 154.141 89.6484C154.125 90.1641 154.195 90.5859 154.352 90.9141C154.508 91.2422 154.703 91.5 154.938 91.6875C155.172 91.875 155.43 92.0078 155.711 92.0859C155.992 92.1641 156.266 92.2031 156.531 92.2031C157.016 92.2031 157.547 92.0156 158.125 91.6406C158.719 91.25 159.289 90.7969 159.836 90.2812C160.398 89.7656 160.906 89.2422 161.359 88.7109C161.828 88.1641 162.18 87.7266 162.414 87.3984C162.555 87.1953 162.688 87.0781 162.812 87.0469C162.938 87 163.031 87.0156 163.094 87.0938C163.156 87.1719 163.18 87.2969 163.164 87.4688C163.148 87.625 163.078 87.8047 162.953 88.0078C162.844 88.1953 162.664 88.4609 162.414 88.8047C162.18 89.1328 161.891 89.5 161.547 89.9062C161.203 90.2969 160.82 90.7031 160.398 91.125C159.977 91.5469 159.531 91.9375 159.062 92.2969C158.594 92.6562 158.109 92.9531 157.609 93.1875C157.109 93.4375 156.609 93.5781 156.109 93.6094C155.984 93.7969 155.781 94.1719 155.5 94.7344ZM173.289 88.3359C173.07 88.6484 172.789 89.0391 172.445 89.5078C172.102 89.9609 171.742 90.4219 171.367 90.8906C171.008 91.3438 170.648 91.7656 170.289 92.1562C169.945 92.5312 169.656 92.7969 169.422 92.9531C169.266 93.0469 169.086 93.125 168.883 93.1875C168.68 93.25 168.469 93.2891 168.25 93.3047C168.047 93.3203 167.852 93.3047 167.664 93.2578C167.477 93.2266 167.312 93.1641 167.172 93.0703C167.031 92.9609 166.914 92.8047 166.82 92.6016C166.742 92.4297 166.664 92.2031 166.586 91.9219C166.523 91.6406 166.5 91.2891 166.516 90.8672C166.141 91.4922 165.727 91.9766 165.273 92.3203C164.82 92.6484 164.391 92.8906 163.984 93.0469C163.516 93.2188 163.047 93.3203 162.578 93.3516C162.359 93.3516 162.125 93.2734 161.875 93.1172C161.625 92.9766 161.414 92.75 161.242 92.4375C161.07 92.1094 160.961 91.6953 160.914 91.1953C160.867 90.6797 160.93 90.0703 161.102 89.3672C161.32 88.4141 161.664 87.5469 162.133 86.7656C162.617 85.9844 163.141 85.3203 163.703 84.7734C164.266 84.2109 164.82 83.7891 165.367 83.5078C165.914 83.2266 166.367 83.1016 166.727 83.1328C167.148 83.2109 167.492 83.3359 167.758 83.5078C167.977 83.6641 168.117 83.8984 168.18 84.2109C168.258 84.5078 168.133 84.9062 167.805 85.4062C168.023 85.3594 168.203 85.3281 168.344 85.3125C168.5 85.2969 168.617 85.2891 168.695 85.2891C168.789 85.2891 168.852 85.2969 168.883 85.3125C168.898 85.3438 168.906 85.4141 168.906 85.5234C168.906 85.6172 168.883 85.7969 168.836 86.0625C168.789 86.3281 168.719 86.6875 168.625 87.1406C168.531 87.5938 168.406 88.1797 168.25 88.8984C168.219 89.0391 168.188 89.1719 168.156 89.2969C168.141 89.4062 168.117 89.5234 168.086 89.6484C168.07 89.7578 168.047 89.8906 168.016 90.0469C167.984 90.2031 167.945 90.3984 167.898 90.6328C167.883 90.7734 167.875 90.9297 167.875 91.1016C167.891 91.2578 167.922 91.4062 167.969 91.5469C168.016 91.6875 168.086 91.8047 168.18 91.8984C168.289 91.9766 168.438 92.0156 168.625 92.0156C168.781 92.0156 168.984 91.9219 169.234 91.7344C169.484 91.5312 169.75 91.2812 170.031 90.9844C170.312 90.6719 170.602 90.3359 170.898 89.9766C171.211 89.6016 171.5 89.2422 171.766 88.8984C172.031 88.5547 172.266 88.25 172.469 87.9844C172.688 87.7188 172.844 87.5234 172.938 87.3984C173.062 87.2578 173.188 87.1797 173.312 87.1641C173.438 87.1328 173.531 87.1641 173.594 87.2578C173.656 87.3516 173.664 87.4922 173.617 87.6797C173.586 87.8672 173.477 88.0859 173.289 88.3359ZM166.422 89.3672C166.5 89.0547 166.594 88.6875 166.703 88.2656C166.812 87.8438 166.906 87.4375 166.984 87.0469C167.062 86.6562 167.117 86.3359 167.148 86.0859C167.195 85.8203 167.188 85.6953 167.125 85.7109C167.047 85.7266 166.961 85.75 166.867 85.7812C166.789 85.8125 166.688 85.8359 166.562 85.8516C166.438 85.8672 166.312 85.8906 166.188 85.9219C166.312 85.6719 166.383 85.4688 166.398 85.3125C166.43 85.1406 166.438 85.0078 166.422 84.9141C166.406 84.8047 166.375 84.7188 166.328 84.6562C166.156 84.5156 165.852 84.6328 165.414 85.0078C164.992 85.3672 164.5 86.0391 163.938 87.0234C163.703 87.4297 163.516 87.8672 163.375 88.3359C163.234 88.7891 163.133 89.2188 163.07 89.625C163.023 90.0312 163.016 90.3906 163.047 90.7031C163.078 91 163.141 91.1953 163.234 91.2891C163.406 91.4609 163.602 91.5469 163.82 91.5469C164.039 91.5312 164.258 91.4688 164.477 91.3594C164.711 91.2344 164.938 91.0781 165.156 90.8906C165.391 90.7031 165.594 90.5078 165.766 90.3047C165.953 90.1016 166.102 89.9141 166.211 89.7422C166.336 89.5703 166.406 89.4453 166.422 89.3672Z" fill="white"/>
<path d="M67.136 19.336C67.136 21.0213 66.8427 22.5893 66.256 24.04C65.68 25.4907 64.864 26.7547 63.808 27.832C62.752 28.8987 61.4773 29.736 59.984 30.344C58.5013 30.952 56.8533 31.256 55.04 31.256C53.2267 31.256 51.5733 30.952 50.08 30.344C48.5867 29.736 47.3067 28.8987 46.24 27.832C45.184 26.7547 44.3627 25.4907 43.776 24.04C43.2 22.5893 42.912 21.0213 42.912 19.336C42.912 17.6507 43.2 16.0827 43.776 14.632C44.3627 13.1813 45.184 11.9227 46.24 10.856C47.3067 9.78933 48.5867 8.952 50.08 8.344C51.5733 7.736 53.2267 7.432 55.04 7.432C56.8533 7.432 58.5013 7.74133 59.984 8.36C61.4773 8.968 62.752 9.80533 63.808 10.872C64.864 11.9387 65.68 13.1973 66.256 14.648C66.8427 16.0987 67.136 17.6613 67.136 19.336ZM61.6 19.336C61.6 18.184 61.4507 17.1493 61.152 16.232C60.8533 15.304 60.4213 14.52 59.856 13.88C59.3013 13.24 58.6187 12.7493 57.808 12.408C56.9973 12.0667 56.0747 11.896 55.04 11.896C53.9947 11.896 53.0613 12.0667 52.24 12.408C51.4293 12.7493 50.7413 13.24 50.176 13.88C49.6213 14.52 49.1947 15.304 48.896 16.232C48.5973 17.1493 48.448 18.184 48.448 19.336C48.448 20.4987 48.5973 21.544 48.896 22.472C49.1947 23.3893 49.6213 24.168 50.176 24.808C50.7413 25.448 51.4293 25.9387 52.24 26.28C53.0613 26.6107 53.9947 26.776 55.04 26.776C56.0747 26.776 56.9973 26.6107 57.808 26.28C58.6187 25.9387 59.3013 25.448 59.856 24.808C60.4213 24.168 60.8533 23.3893 61.152 22.472C61.4507 21.544 61.6 20.4987 61.6 19.336ZM78.5425 19.128C79.9505 19.128 80.9638 18.792 81.5825 18.12C82.2012 17.448 82.5105 16.5093 82.5105 15.304C82.5105 14.7707 82.4305 14.2853 82.2705 13.848C82.1105 13.4107 81.8652 13.0373 81.5345 12.728C81.2145 12.408 80.8038 12.1627 80.3025 11.992C79.8118 11.8213 79.2252 11.736 78.5425 11.736H75.7265V19.128H78.5425ZM78.5425 7.688C80.1852 7.688 81.5932 7.88533 82.7665 8.28C83.9505 8.664 84.9212 9.19733 85.6785 9.88C86.4465 10.5627 87.0118 11.368 87.3745 12.296C87.7372 13.224 87.9185 14.2267 87.9185 15.304C87.9185 16.4667 87.7318 17.5333 87.3585 18.504C86.9852 19.4747 86.4145 20.3067 85.6465 21C84.8785 21.6933 83.9025 22.2373 82.7185 22.632C81.5452 23.016 80.1532 23.208 78.5425 23.208H75.7265V31H70.3185V7.688H78.5425ZM96.1023 11.848V17.288H103.43V21.288H96.1023V26.84H105.67V31H90.6623V7.688H105.67V11.848H96.1023ZM129.358 7.688V31H126.542C126.126 31 125.774 30.936 125.486 30.808C125.209 30.6693 124.931 30.4347 124.654 30.104L113.662 16.2C113.705 16.616 113.731 17.0213 113.742 17.416C113.763 17.8 113.774 18.1627 113.774 18.504V31H109.006V7.688H111.854C112.089 7.688 112.286 7.69867 112.446 7.72C112.606 7.74133 112.75 7.784 112.878 7.848C113.006 7.90133 113.129 7.98133 113.246 8.088C113.363 8.19467 113.497 8.33867 113.646 8.52L124.734 22.52C124.681 22.072 124.643 21.64 124.622 21.224C124.601 20.7973 124.59 20.3973 124.59 20.024V7.688H129.358Z" fill="white"/>
<path d="M38.68 52.648C38.68 55.192 38.256 57.528 37.408 59.656C36.56 61.784 35.368 63.616 33.832 65.152C32.296 66.688 30.448 67.88 28.288 68.728C26.128 69.576 23.728 70 21.088 70H7.864V35.296H21.088C23.728 35.296 26.128 35.728 28.288 36.592C30.448 37.44 32.296 38.632 33.832 40.168C35.368 41.688 36.56 43.512 37.408 45.64C38.256 47.768 38.68 50.104 38.68 52.648ZM32.056 52.648C32.056 50.744 31.8 49.04 31.288 47.536C30.792 46.016 30.064 44.736 29.104 43.696C28.16 42.64 27.008 41.832 25.648 41.272C24.304 40.712 22.784 40.432 21.088 40.432H14.344V64.864H21.088C22.784 64.864 24.304 64.584 25.648 64.024C27.008 63.464 28.16 62.664 29.104 61.624C30.064 60.568 30.792 59.288 31.288 57.784C31.8 56.264 32.056 54.552 32.056 52.648ZM61.6375 56.896L57.4135 45.352C57.2055 44.84 56.9895 44.232 56.7655 43.528C56.5415 42.824 56.3175 42.064 56.0935 41.248C55.8855 42.064 55.6695 42.832 55.4455 43.552C55.2215 44.256 55.0055 44.872 54.7975 45.4L50.5975 56.896H61.6375ZM73.0375 70H68.0455C67.4855 70 67.0295 69.864 66.6775 69.592C66.3255 69.304 66.0615 68.952 65.8855 68.536L63.2935 61.456H48.9175L46.3255 68.536C46.1975 68.904 45.9495 69.24 45.5815 69.544C45.2135 69.848 44.7575 70 44.2135 70H39.1735L52.8295 35.296H59.4055L73.0375 70ZM105.886 35.296V70H102.574C102.062 70 101.63 69.92 101.278 69.76C100.942 69.584 100.614 69.296 100.294 68.896L82.1736 45.76C82.2696 46.816 82.3176 47.792 82.3176 48.688V70H76.6296V35.296H80.0136C80.2856 35.296 80.5176 35.312 80.7096 35.344C80.9176 35.36 81.0936 35.408 81.2376 35.488C81.3976 35.552 81.5496 35.656 81.6936 35.8C81.8376 35.928 81.9976 36.104 82.1736 36.328L100.366 59.56C100.318 59 100.278 58.448 100.246 57.904C100.214 57.36 100.198 56.856 100.198 56.392V35.296H105.886ZM137.446 61.816C137.798 61.816 138.11 61.952 138.382 62.224L140.926 64.984C139.518 66.728 137.782 68.064 135.718 68.992C133.67 69.92 131.206 70.384 128.326 70.384C125.75 70.384 123.43 69.944 121.366 69.064C119.318 68.184 117.566 66.96 116.11 65.392C114.654 63.824 113.534 61.952 112.75 59.776C111.982 57.6 111.598 55.224 111.598 52.648C111.598 50.04 112.014 47.656 112.846 45.496C113.678 43.32 114.846 41.448 116.35 39.88C117.87 38.312 119.678 37.096 121.774 36.232C123.87 35.352 126.19 34.912 128.734 34.912C131.262 34.912 133.502 35.328 135.454 36.16C137.422 36.992 139.094 38.08 140.47 39.424L138.31 42.424C138.182 42.616 138.014 42.784 137.806 42.928C137.614 43.072 137.342 43.144 136.99 43.144C136.75 43.144 136.502 43.08 136.246 42.952C135.99 42.808 135.71 42.64 135.406 42.448C135.102 42.24 134.75 42.016 134.35 41.776C133.95 41.536 133.486 41.32 132.958 41.128C132.43 40.92 131.814 40.752 131.11 40.624C130.422 40.48 129.622 40.408 128.71 40.408C127.158 40.408 125.734 40.688 124.438 41.248C123.158 41.792 122.054 42.592 121.126 43.648C120.198 44.688 119.478 45.968 118.966 47.488C118.454 48.992 118.198 50.712 118.198 52.648C118.198 54.6 118.47 56.336 119.014 57.856C119.574 59.376 120.326 60.656 121.27 61.696C122.214 62.736 123.326 63.536 124.606 64.096C125.886 64.64 127.262 64.912 128.734 64.912C129.614 64.912 130.406 64.864 131.11 64.768C131.83 64.672 132.486 64.52 133.078 64.312C133.686 64.104 134.254 63.84 134.782 63.52C135.326 63.184 135.862 62.776 136.39 62.296C136.55 62.152 136.718 62.04 136.894 61.96C137.07 61.864 137.254 61.816 137.446 61.816ZM151.828 40.432V50.056H163.972V55.024H151.828V64.84H167.236V70H145.348V35.296H167.236V40.432H151.828Z" fill="white"/>
<line x1="8" y1="20" x2="38" y2="20" stroke="white" stroke-width="8"/>
<line x1="137" y1="20" x2="167" y2="20" stroke="white" stroke-width="8"/>
</svg>
