<svg width="166" height="80" viewBox="0 0 166 80" fill="none" xmlns="http://www.w3.org/2000/svg">
<path d="M63.136 19.336C63.136 21.0213 62.8427 22.5893 62.256 24.04C61.68 25.4907 60.864 26.7547 59.808 27.832C58.752 28.8987 57.4773 29.736 55.984 30.344C54.5013 30.952 52.8533 31.256 51.04 31.256C49.2267 31.256 47.5733 30.952 46.08 30.344C44.5867 29.736 43.3067 28.8987 42.24 27.832C41.184 26.7547 40.3627 25.4907 39.776 24.04C39.2 22.5893 38.912 21.0213 38.912 19.336C38.912 17.6507 39.2 16.0827 39.776 14.632C40.3627 13.1813 41.184 11.9227 42.24 10.856C43.3067 9.78933 44.5867 8.952 46.08 8.344C47.5733 7.736 49.2267 7.432 51.04 7.432C52.8533 7.432 54.5013 7.74133 55.984 8.36C57.4773 8.968 58.752 9.80533 59.808 10.872C60.864 11.9387 61.68 13.1973 62.256 14.648C62.8427 16.0987 63.136 17.6613 63.136 19.336ZM57.6 19.336C57.6 18.184 57.4507 17.1493 57.152 16.232C56.8533 15.304 56.4213 14.52 55.856 13.88C55.3013 13.24 54.6187 12.7493 53.808 12.408C52.9973 12.0667 52.0747 11.896 51.04 11.896C49.9947 11.896 49.0613 12.0667 48.24 12.408C47.4293 12.7493 46.7413 13.24 46.176 13.88C45.6213 14.52 45.1947 15.304 44.896 16.232C44.5973 17.1493 44.448 18.184 44.448 19.336C44.448 20.4987 44.5973 21.544 44.896 22.472C45.1947 23.3893 45.6213 24.168 46.176 24.808C46.7413 25.448 47.4293 25.9387 48.24 26.28C49.0613 26.6107 49.9947 26.776 51.04 26.776C52.0747 26.776 52.9973 26.6107 53.808 26.28C54.6187 25.9387 55.3013 25.448 55.856 24.808C56.4213 24.168 56.8533 23.3893 57.152 22.472C57.4507 21.544 57.6 20.4987 57.6 19.336ZM74.5425 19.128C75.9505 19.128 76.9638 18.792 77.5825 18.12C78.2012 17.448 78.5105 16.5093 78.5105 15.304C78.5105 14.7707 78.4305 14.2853 78.2705 13.848C78.1105 13.4107 77.8652 13.0373 77.5345 12.728C77.2145 12.408 76.8038 12.1627 76.3025 11.992C75.8118 11.8213 75.2252 11.736 74.5425 11.736H71.7265V19.128H74.5425ZM74.5425 7.688C76.1852 7.688 77.5932 7.88533 78.7665 8.28C79.9505 8.664 80.9212 9.19733 81.6785 9.88C82.4465 10.5627 83.0118 11.368 83.3745 12.296C83.7372 13.224 83.9185 14.2267 83.9185 15.304C83.9185 16.4667 83.7318 17.5333 83.3585 18.504C82.9852 19.4747 82.4145 20.3067 81.6465 21C80.8785 21.6933 79.9025 22.2373 78.7185 22.632C77.5452 23.016 76.1532 23.208 74.5425 23.208H71.7265V31H66.3185V7.688H74.5425ZM92.1023 11.848V17.288H99.4303V21.288H92.1023V26.84H101.67V31H86.6623V7.688H101.67V11.848H92.1023ZM125.358 7.688V31H122.542C122.126 31 121.774 30.936 121.486 30.808C121.209 30.6693 120.931 30.4347 120.654 30.104L109.662 16.2C109.705 16.616 109.731 17.0213 109.742 17.416C109.763 17.8 109.774 18.1627 109.774 18.504V31H105.006V7.688H107.854C108.089 7.688 108.286 7.69867 108.446 7.72C108.606 7.74133 108.75 7.784 108.878 7.848C109.006 7.90133 109.129 7.98133 109.246 8.088C109.363 8.19467 109.497 8.33867 109.646 8.52L120.734 22.52C120.681 22.072 120.643 21.64 120.622 21.224C120.601 20.7973 120.59 20.3973 120.59 20.024V7.688H125.358Z" fill="black"/>
<path d="M34.68 52.648C34.68 55.192 34.256 57.528 33.408 59.656C32.56 61.784 31.368 63.616 29.832 65.152C28.296 66.688 26.448 67.88 24.288 68.728C22.128 69.576 19.728 70 17.088 70H3.864V35.296H17.088C19.728 35.296 22.128 35.728 24.288 36.592C26.448 37.44 28.296 38.632 29.832 40.168C31.368 41.688 32.56 43.512 33.408 45.64C34.256 47.768 34.68 50.104 34.68 52.648ZM28.056 52.648C28.056 50.744 27.8 49.04 27.288 47.536C26.792 46.016 26.064 44.736 25.104 43.696C24.16 42.64 23.008 41.832 21.648 41.272C20.304 40.712 18.784 40.432 17.088 40.432H10.344V64.864H17.088C18.784 64.864 20.304 64.584 21.648 64.024C23.008 63.464 24.16 62.664 25.104 61.624C26.064 60.568 26.792 59.288 27.288 57.784C27.8 56.264 28.056 54.552 28.056 52.648ZM57.6375 56.896L53.4135 45.352C53.2055 44.84 52.9895 44.232 52.7655 43.528C52.5415 42.824 52.3175 42.064 52.0935 41.248C51.8855 42.064 51.6695 42.832 51.4455 43.552C51.2215 44.256 51.0055 44.872 50.7975 45.4L46.5975 56.896H57.6375ZM69.0375 70H64.0455C63.4855 70 63.0295 69.864 62.6775 69.592C62.3255 69.304 62.0615 68.952 61.8855 68.536L59.2935 61.456H44.9175L42.3255 68.536C42.1975 68.904 41.9495 69.24 41.5815 69.544C41.2135 69.848 40.7575 70 40.2135 70H35.1735L48.8295 35.296H55.4055L69.0375 70ZM101.886 35.296V70H98.5736C98.0616 70 97.6296 69.92 97.2776 69.76C96.9416 69.584 96.6136 69.296 96.2936 68.896L78.1736 45.76C78.2696 46.816 78.3176 47.792 78.3176 48.688V70H72.6296V35.296H76.0136C76.2856 35.296 76.5176 35.312 76.7096 35.344C76.9176 35.36 77.0936 35.408 77.2376 35.488C77.3976 35.552 77.5496 35.656 77.6936 35.8C77.8376 35.928 77.9976 36.104 78.1736 36.328L96.3656 59.56C96.3176 59 96.2776 58.448 96.2456 57.904C96.2136 57.36 96.1976 56.856 96.1976 56.392V35.296H101.886ZM133.446 61.816C133.798 61.816 134.11 61.952 134.382 62.224L136.926 64.984C135.518 66.728 133.782 68.064 131.718 68.992C129.67 69.92 127.206 70.384 124.326 70.384C121.75 70.384 119.43 69.944 117.366 69.064C115.318 68.184 113.566 66.96 112.11 65.392C110.654 63.824 109.534 61.952 108.75 59.776C107.982 57.6 107.598 55.224 107.598 52.648C107.598 50.04 108.014 47.656 108.846 45.496C109.678 43.32 110.846 41.448 112.35 39.88C113.87 38.312 115.678 37.096 117.774 36.232C119.87 35.352 122.19 34.912 124.734 34.912C127.262 34.912 129.502 35.328 131.454 36.16C133.422 36.992 135.094 38.08 136.47 39.424L134.31 42.424C134.182 42.616 134.014 42.784 133.806 42.928C133.614 43.072 133.342 43.144 132.99 43.144C132.75 43.144 132.502 43.08 132.246 42.952C131.99 42.808 131.71 42.64 131.406 42.448C131.102 42.24 130.75 42.016 130.35 41.776C129.95 41.536 129.486 41.32 128.958 41.128C128.43 40.92 127.814 40.752 127.11 40.624C126.422 40.48 125.622 40.408 124.71 40.408C123.158 40.408 121.734 40.688 120.438 41.248C119.158 41.792 118.054 42.592 117.126 43.648C116.198 44.688 115.478 45.968 114.966 47.488C114.454 48.992 114.198 50.712 114.198 52.648C114.198 54.6 114.47 56.336 115.014 57.856C115.574 59.376 116.326 60.656 117.27 61.696C118.214 62.736 119.326 63.536 120.606 64.096C121.886 64.64 123.262 64.912 124.734 64.912C125.614 64.912 126.406 64.864 127.11 64.768C127.83 64.672 128.486 64.52 129.078 64.312C129.686 64.104 130.254 63.84 130.782 63.52C131.326 63.184 131.862 62.776 132.39 62.296C132.55 62.152 132.718 62.04 132.894 61.96C133.07 61.864 133.254 61.816 133.446 61.816ZM147.828 40.432V50.056H159.972V55.024H147.828V64.84H163.236V70H141.348V35.296H163.236V40.432H147.828Z" fill="black"/>
<line x1="4" y1="20" x2="34" y2="20" stroke="black" stroke-width="8"/>
<line x1="133" y1="20" x2="163" y2="20" stroke="black" stroke-width="8"/>
</svg>
